<svg width="238" height="224" viewBox="0 0 238 224" fill="none" xmlns="http://www.w3.org/2000/svg">
<g clip-path="url(#clip0_307_281)">
<rect width="238" height="224" fill="white"/>
<path d="M122.348 176.008C120.834 176.174 119.546 177.185 119.025 178.616C118.504 180.047 118.841 181.65 119.894 182.75C128.274 191.505 138.74 198.518 150.886 202.939C163.032 207.359 175.557 208.715 187.604 207.395C189.118 207.229 190.407 206.217 190.927 204.786C191.448 203.355 191.111 201.753 190.058 200.653C181.678 191.897 171.212 184.885 159.066 180.464C146.92 176.043 134.395 174.687 122.348 176.008Z" fill="#46B431" stroke="black" stroke-width="8" stroke-linejoin="round"/>
<path d="M114.543 176.442C116.057 176.608 117.345 177.619 117.866 179.05C118.387 180.481 118.05 182.084 116.997 183.184C108.617 191.939 98.1505 198.952 86.0046 203.373C73.8588 207.794 61.3333 209.149 49.2862 207.829C47.7724 207.663 46.4841 206.652 45.9632 205.221C45.4424 203.79 45.7793 202.187 46.8323 201.087C55.2122 192.332 65.6786 185.319 77.8245 180.898C89.9704 176.477 102.496 175.122 114.543 176.442Z" fill="#46B431" stroke="black" stroke-width="8" stroke-linejoin="round"/>
<path d="M114.5 219.44C114.5 221.649 116.291 223.44 118.5 223.44C120.709 223.44 122.5 221.649 122.5 219.44H114.5ZM122.5 219.44V157.44H114.5V219.44H122.5Z" fill="black"/>
<path d="M118.655 176.782C117.602 177.882 117.265 179.484 117.785 180.915C118.306 182.347 119.595 183.358 121.108 183.524C140.821 185.684 161.318 183.467 181.201 176.23C201.083 168.994 218.21 157.517 231.922 143.191C232.975 142.091 233.312 140.488 232.791 139.057C232.27 137.626 230.982 136.615 229.468 136.449C209.755 134.288 189.258 136.506 169.376 143.742C149.493 150.979 132.367 162.455 118.655 176.782Z" fill="#46B431" stroke="black" stroke-width="8" stroke-linejoin="round"/>
<path d="M118.922 176.782C119.975 177.882 120.312 179.484 119.791 180.915C119.27 182.347 117.982 183.358 116.468 183.524C96.7553 185.684 76.2584 183.467 56.3759 176.23C36.4934 168.994 19.3666 157.517 5.65455 143.191C4.60155 142.091 4.26462 140.488 4.78548 139.057C5.30633 137.626 6.59461 136.615 8.10844 136.449C27.8212 134.288 48.3181 136.506 68.2006 143.742C88.0831 150.979 105.21 162.455 118.922 176.782Z" fill="#46B431" stroke="black" stroke-width="8" stroke-linejoin="round"/>
<path d="M122.792 173.486C122.692 175.006 123.465 176.45 124.783 177.212C126.102 177.973 127.739 177.92 129.005 177.074C150.049 163.015 168.269 144.034 181.771 120.646C195.274 97.2589 202.603 71.9895 204.256 46.7361C204.355 45.2165 203.583 43.7722 202.264 43.0107C200.945 42.2493 199.309 42.3028 198.042 43.1488C176.999 57.207 158.779 76.1886 145.276 99.576C131.774 122.963 124.445 148.233 122.792 173.486Z" fill="#46B431" stroke="black" stroke-width="8" stroke-linejoin="round"/>
<path d="M114.256 173.486C114.355 175.006 113.583 176.45 112.264 177.212C110.945 177.973 109.309 177.92 108.042 177.074C86.9986 163.015 68.7791 144.034 55.2763 120.646C41.7736 97.2589 34.4449 71.9895 32.7918 46.7361C32.6924 45.2165 33.4644 43.7722 34.7833 43.0107C36.1022 42.2493 37.739 42.3028 39.0053 43.1488C60.0489 57.207 78.2684 76.1886 91.7712 99.576C105.274 122.963 112.603 148.233 114.256 173.486Z" fill="#46B431" stroke="black" stroke-width="8" stroke-linejoin="round"/>
<path d="M114.913 177.649C115.586 179.015 116.977 179.88 118.5 179.88C120.023 179.88 121.414 179.015 122.087 177.649C134.838 151.799 142 122.7 142 91.9398C142 61.1797 134.838 32.081 122.087 6.23054C121.414 4.86476 120.023 4 118.5 4C116.977 4 115.586 4.86476 114.913 6.23054C102.162 32.081 95 61.1797 95 91.9398C95 122.7 102.162 151.799 114.913 177.649Z" fill="#46B431" stroke="black" stroke-width="8" stroke-linejoin="round"/>
</g>
<defs>
<clipPath id="clip0_307_281">
<rect width="238" height="224" fill="white"/>
</clipPath>
</defs>
</svg>
